<svg width="51" height="44" viewBox="0 0 51 44" fill="none" xmlns="http://www.w3.org/2000/svg">
<path d="M3.69023 3.75205C1.32689 6.15024 0 9.39702 0 12.7817C0 16.1663 1.32689 19.4131 3.69023 21.8113L25.4862 44L47.3066 21.836C49.6718 19.4388 51 16.1916 51 12.8064C51 9.42108 49.6718 6.17393 47.3066 3.77674C46.1441 2.58812 44.7597 1.64445 43.2337 1.00039C41.7077 0.35633 40.0704 0.0246942 38.4167 0.0246942C36.763 0.0246942 35.1257 0.35633 33.5997 1.00039C32.0737 1.64445 30.6894 2.58812 29.5268 3.77674L25.5106 7.85688L21.47 3.75205C20.3074 2.56343 18.9231 1.61975 17.3971 0.975693C15.8711 0.331635 14.2338 0 12.5801 0C10.9264 0 9.28909 0.331635 7.7631 0.975693C6.23711 1.61975 4.85275 2.56343 3.69023 3.75205Z" fill="#ED4B09"/>
</svg>
