<svg width="93" height="80" viewBox="0 0 93 80" fill="none" xmlns="http://www.w3.org/2000/svg">
<path d="M6.72924 6.82191C2.41963 11.1823 0 17.0855 0 23.2394C0 29.3933 2.41963 35.2965 6.72924 39.6568L46.4748 80L86.2649 39.7017C90.578 35.3432 93 29.4393 93 23.2843C93 17.1292 90.578 11.2253 86.2649 6.86681C84.145 4.70568 81.6206 2.9899 78.8379 1.81889C76.0552 0.647872 73.0696 0.0448985 70.054 0.0448985C67.0384 0.0448985 64.0527 0.647872 61.2701 1.81889C58.4874 2.9899 55.9629 4.70568 53.843 6.86681L46.5194 14.2852L39.1511 6.82191C37.0312 4.66078 34.5068 2.945 31.7241 1.77399C28.9414 0.602973 25.9558 0 22.9402 0C19.9246 0 16.9389 0.602973 14.1562 1.77399C11.3736 2.945 8.84914 4.66078 6.72924 6.82191Z" fill="#ED4B09"/>
</svg>
